#!OML:ASF F:\VICON\USERDATA\INSTALL\rory3\rory3.ASF
:FULLY-SPECIFIED
:DEGREES
1149
root -0.485491 18.3584 3.73493 -0.343386 -2.55519 1.33428
lowerback 7.03606 0.672003 -1.05972
upperback 0.869781 0.841893 0.89641
thorax -3.07527 0.435604 1.43976
lowerneck -15.206 -1.63449 -7.50845
upperneck 11.0615 -1.70287 7.67261
head 5.96763 -0.546413 3.51692
rclavicle -9.41742e-015 -1.98785e-015
rhumerus -23.7302 14.7432 -36.2098
rradius 52.8503
rwrist 19.4923
rhand -34.7579 12.4962
rfingers 7.12502
rthumb -7.91106 -17.3358
lclavicle -9.41742e-015 -1.98785e-015
lhumerus -26.2167 -4.56817 30.0012
lradius 47.6377
lwrist -7.45071
lhand -30.0175 14.0333
lfingers 7.12502
lthumb -3.33433 43.987
rfemur -2.71325 27.4332 8.12783
rtibia 20.1421
rfoot -17.9528 -17.7923
rtoes -14.125
lfemur 3.36432 -16.0683 -10.3383
ltibia 13.2693
lfoot -20.6745 29.0972
ltoes -4.03663
1150
root -0.482452 18.3596 3.73476 -0.297243 -2.7371 1.18697
lowerback 7.15259 0.649635 -0.97539
upperback 0.877169 0.820113 0.966836
thorax -3.1319 0.424395 1.46617
lowerneck -15.3377 -1.61769 -7.40131
upperneck 10.9412 -1.66639 7.51771
head 5.94646 -0.533773 3.45138
rclavicle -6.98231e-015 -7.95139e-016
rhumerus -23.8372 14.7085 -35.236
rradius 51.273
rwrist 19.4754
rhand -33.8724 12.1543
rfingers 7.12502
rthumb -7.05636 -17.7081
lclavicle -6.98231e-015 -7.95139e-016
lhumerus -26.4202 -4.30359 29.3883
lradius 46.487
lwrist -6.88918
lhand -30.4523 14.5114
lfingers 7.12502
lthumb -3.75427 44.4581
rfemur -2.82485 27.4196 8.20871
rtibia 20.0929
rfoot -17.851 -17.6013
rtoes -13.9125
lfemur 3.34919 -16.0612 -10.2098
ltibia 13.3452
lfoot -20.962 29.1896
ltoes -3.61394
1151
root -0.478179 18.3594 3.73965 -0.268702 -2.88541 1.25274
lowerback 7.1971 0.63477 -1.05242
upperback 0.904735 0.793926 0.968692
thorax -3.12848 0.412094 1.51374
lowerneck -15.4336 -1.63638 -7.27898
upperneck 10.788 -1.67239 7.29187
head 5.91145 -0.547366 3.3559
rclavicle 1.36167e-014 1.19271e-015
rhumerus -23.4373 14.5423 -34.2272
rradius 48.799
rwrist 19.5962
rhand -33.1018 12.1936
rfingers 7.12502
rthumb -6.31249 -17.6924
lclavicle 1.36167e-014 1.19271e-015
lhumerus -26.7116 -3.91467 28.6104
lradius 45.5151
lwrist -7.0298
lhand -30.6922 14.8067
lfingers 7.12502
lthumb -3.98588 44.7492
rfemur -2.90088 27.3425 8.06103
rtibia 20.0751
rfoot -17.85 -17.3932
rtoes -13.8986
lfemur 3.362 -16.0497 -10.3341
ltibia 13.4084
lfoot -21.1981 29.2646
ltoes -3.39762
1152
root -0.474206 18.3589 3.74216 -0.260423 -2.97723 1.35372
lowerback 7.32109 0.596549 -1.16814
upperback 0.932195 0.732446 0.95738
thorax -3.16852 0.382917 1.57237
lowerneck -15.582 -1.6406 -7.2359
upperneck 10.5961 -1.65816 7.21394
head 5.87345 -0.542015 3.3232
rclavicle -1.63997e-015 3.97569e-016
rhumerus -23.8926 14.5959 -33.2189
rradius 47.772
rwrist 19.6435
rhand -32.3167 11.8367
rfingers 7.12502
rthumb -5.55448 -18.0706
lclavicle -1.63997e-015 3.97569e-016
lhumerus -27.0547 -3.38975 27.7467
lradius 44.6247
lwrist -7.41595
lhand -31.0782 14.9865
lfingers 7.12502
lthumb -4.35861 44.9217
rfemur -2.96263 27.2222 7.89129
rtibia 20.087
rfoot -17.8437 -17.2388
rtoes -14.0983
lfemur 3.39424 -16.2193 -10.5179
ltibia 13.441
lfoot -21.4414 29.4375
ltoes -3.31399
1153
root -0.472323 18.3604 3.74228 -0.191541 -3.11392 1.31291
lowerback 7.42966 0.549939 -1.16939
upperback 0.954652 0.669813 0.972539
thorax -3.20386 0.351935 1.59437
lowerneck -15.8187 -1.60123 -7.18417
upperneck 10.4585 -1.59298 7.20078
head 5.86391 -0.504998 3.31587
rclavicle 1.02374e-014 3.97569e-016
rhumerus -24.0936 14.2727 -32.2696
rradius 46.5849
rwrist 19.7532
rhand -31.819 11.8697
rfingers 7.12502
rthumb -5.07397 -18.0495
lclavicle 1.02374e-014 3.97569e-016
lhumerus -27.3743 -2.99041 26.9168
lradius 43.6899
lwrist -7.1641
lhand -31.6045 14.9451
lfingers 7.12502
lthumb -4.86687 44.8692
rfemur -3.12863 27.2111 7.85821
rtibia 20.1155
rfoot -17.7696 -17.1244
rtoes -14.1585
lfemur 3.37701 -16.3156 -10.5104
ltibia 13.4294
lfoot -21.6385 29.6181
ltoes -2.96274
1154
root -0.473451 18.3608 3.7455 -0.104631 -3.29267 1.27435
lowerback 7.46154 0.531259 -1.19229
upperback 0.98048 0.642938 0.979388
thorax -3.19429 0.338609 1.61695
lowerneck -15.9939 -1.59342 -7.14691
upperneck 10.291 -1.57244 7.20331
head 5.83834 -0.490153 3.31125
rclavicle 3.47873e-015 -5.1684e-015
rhumerus -24.259 13.7049 -31.3324
rradius 45.4779
rwrist 19.5477
rhand -31.1472 11.8398
rfingers 7.12502
rthumb -4.42525 -18.094
lclavicle 3.47873e-015 -5.1684e-015
lhumerus -27.6271 -2.7398 26.1732
lradius 42.7832
lwrist -6.34543
lhand -31.8088 14.9586
lfingers 7.12502
lthumb -5.06415 44.8781
rfemur -3.3085 27.293 7.82158
rtibia 20.1352
rfoot -17.7304 -17.0317
rtoes -14.1139
lfemur 3.35256 -16.3217 -10.4836
ltibia 13.4386
lfoot -21.93 29.6937
ltoes -2.43161
1155
root -0.473865 18.3621 3.74764 -0.0358888 -3.45083 1.23635
lowerback 7.5442 0.521131 -1.18645
upperback 0.982602 0.629059 0.976174
thorax -3.23764 0.331892 1.61127
lowerneck -16.0666 -1.61002 -7.1994
upperneck 10.0647 -1.58622 7.32936
head 5.78166 -0.487888 3.35714
rclavicle -1.39149e-014 -1.39149e-014
rhumerus -24.493 13.2604 -30.4049
rradius 44.311
rwrist 19.0735
rhand -31.0279 11.9384
rfingers 7.12502
rthumb -4.31006 -17.9977
lclavicle -1.39149e-014 -1.39149e-014
lhumerus -27.9174 -2.47512 25.3981
lradius 41.9837
lwrist -5.80384
lhand -31.7131 14.9743
lfingers 7.12502
lthumb -4.97171 44.8959
rfemur -3.45447 27.351 7.79243
rtibia 20.1376
rfoot -17.6951 -16.9337
rtoes -14.193
lfemur 3.29173 -16.2534 -10.4442
ltibia 13.515
lfoot -22.0894 29.7389
ltoes -2.13387
1156
root -0.472328 18.3635 3.7456 0.057327 -3.53837 1.23191
lowerback 7.65987 0.493839 -1.17541
upperback 0.971145 0.591992 0.95701
thorax -3.3124 0.313826 1.58838
lowerneck -16.0486 -1.6158 -7.14422
upperneck 9.65497 -1.58758 7.31799
head 5.64926 -0.487707 3.33995
rclavicle 4.77083e-015 -7.95139e-015
rhumerus -24.7482 12.7104 -29.4595
rradius 43.0059
rwrist 18.7891
rhand -31.6981 12.4536
rfingers 7.12502
rthumb -4.95724 -17.4684
lclavicle 4.77083e-015 -7.95139e-015
lhumerus -28.2471 -2.13607 24.5393
lradius 41.2402
lwrist -5.7994
lhand -31.6798 14.98
lfingers 7.12502
lthumb -4.93953 44.9025
rfemur -3.6203 27.3214 7.71152
rtibia 20.1269
rfoot -17.6427 -16.8584
rtoes -14.2398
lfemur 3.1451 -16.1558 -10.4166
ltibia 13.6175
lfoot -22.0659 29.7698
ltoes -2.52971
